<?xml version="1.0" encoding="UTF-8"?>
<svg version="1.1" xmlns="http://www.w3.org/2000/svg" width="138" height="75">
<path d="M0 0 C45.54 0 91.08 0 138 0 C138 24.75 138 49.5 138 75 C92.46 75 46.92 75 0 75 C0 50.25 0 25.5 0 0 Z " fill="#FDFDFD" transform="translate(0,0)"/>
<path d="M0 0 C1.98 0 3.96 0 6 0 C6 4.62 6 9.24 6 14 C7.32 13.01 8.64 12.02 10 11 C13.07750466 10.33935499 15.91298307 10.39470256 19 11 C21.75569447 13.18159145 23.43588747 14.87177494 25 18 C26.03888907 30.33042104 26.03888907 30.33042104 23.125 34.75 C20.96451577 37.03757154 20.0668068 37.89290743 16.9765625 38.203125 C10.56532798 38.33092369 10.56532798 38.33092369 7.4375 36.5 C6.963125 36.005 6.48875 35.51 6 35 C6 35.99 6 36.98 6 38 C4.02 38 2.04 38 0 38 C0 25.46 0 12.92 0 0 Z " fill="#141212" transform="translate(47,18)"/>
<path d="M0 0 C3.3 0 6.6 0 10 0 C12.96536952 7.26649108 15.68001443 14.58511571 18.25 22 C18.61351563 23.03511719 18.97703125 24.07023437 19.3515625 25.13671875 C19.69445312 26.12285156 20.03734375 27.10898437 20.390625 28.125 C20.70032227 29.01445313 21.01001953 29.90390625 21.32910156 30.8203125 C22 33 22 33 22 35 C19.69 35 17.38 35 15 35 C14.01 32.69 13.02 30.38 12 28 C5.07 27.505 5.07 27.505 -2 27 C-2.66 29.64 -3.32 32.28 -4 35 C-6.31 35 -8.62 35 -11 35 C-9.48406093 27.21207125 -7.0210974 19.90859062 -4.375 12.4375 C-3.95476563 11.23802734 -3.53453125 10.03855469 -3.1015625 8.80273438 C-2.07225134 5.86685823 -1.03830116 2.93270619 0 0 Z " fill="#161313" transform="translate(20,21)"/>
<path d="M0 0 C1.98 0 3.96 0 6 0 C6.33 4.62 6.66 9.24 7 14 C8.32 13.01 9.64 12.02 11 11 C13.73347531 10.4073911 16.25456221 10.47571722 19 11 C21.43119623 12.87015094 22.64069173 14.28138345 24 17 C24.08400529 18.59447464 24.10727467 20.19240545 24.09765625 21.7890625 C24.09443359 22.73007812 24.09121094 23.67109375 24.08789062 24.640625 C24.07951172 25.62546875 24.07113281 26.6103125 24.0625 27.625 C24.05798828 28.61757813 24.05347656 29.61015625 24.04882812 30.6328125 C24.03702145 33.0886016 24.020554 35.54427104 24 38 C21.69 38 19.38 38 17 38 C16.505 28.1 16.505 28.1 16 18 C14.02 17.67 12.04 17.34 10 17 C6.2237411 20.76613488 6.4584214 24.72196555 6.3125 29.75 C6.27833984 30.54277344 6.24417969 31.33554687 6.20898438 32.15234375 C6.12680896 34.10107504 6.06171955 36.05051362 6 38 C4.02 38 2.04 38 0 38 C0 25.46 0 12.92 0 0 Z " fill="#151313" transform="translate(79,18)"/>
<path d="M0 0 C2.31 0 4.62 0 7 0 C7 8.91 7 17.82 7 27 C4.69 27 2.38 27 0 27 C0 18.09 0 9.18 0 0 Z " fill="#191616" transform="translate(110,29)"/>
<path d="M0 0 C3.26547725 1.54680501 4.08124977 2.7468744 5.375 6.125 C5.48802682 9.74892227 5.08288326 12.99238679 3.125 16.125 C0.60584387 17.56451779 -0.7710547 17.68186738 -3.625 17.125 C-6.68511194 14.39571097 -7.53522982 12.68356999 -8.1875 8.625 C-7.625 5.125 -7.625 5.125 -5.4375 2.125 C-2.625 0.125 -2.625 0.125 0 0 Z " fill="#F3F3F3" transform="translate(60.625,33.875)"/>
<path d="M0 0 C2.00993705 3.01490557 2.72623341 5.2149927 3.625 8.6875 C3.88539062 9.68136719 4.14578125 10.67523438 4.4140625 11.69921875 C4.60742188 12.45847656 4.80078125 13.21773437 5 14 C1.7 14 -1.6 14 -5 14 C-4.35799564 11.85301798 -3.71129254 9.70744047 -3.0625 7.5625 C-2.70285156 6.36753906 -2.34320312 5.17257813 -1.97265625 3.94140625 C-1 1 -1 1 0 0 Z " fill="#F4F4F4" transform="translate(25,28)"/>
<path d="M0 0 C1.1446875 0.3403125 1.1446875 0.3403125 2.3125 0.6875 C3 2.5 3 2.5 3.3125 4.6875 C2.1875 6.5 2.1875 6.5 0.3125 7.6875 C-2.375 7.375 -2.375 7.375 -4.6875 6.6875 C-5.375 4.875 -5.375 4.875 -5.6875 2.6875 C-3.97309355 -0.07459928 -3.26180423 -0.37927956 0 0 Z " fill="#222020" transform="translate(114.6875,18.3125)"/>
</svg>
